<?xml version="1.0" encoding="UTF-8"?>
<svg width="194px" height="194px" viewBox="0 0 194 194" version="1.1" xmlns="http://www.w3.org/2000/svg" xmlns:xlink="http://www.w3.org/1999/xlink">
    <g stroke="none" stroke-width="1" fill="none" fill-rule="evenodd">
        <circle fill="#06213D" cx="97" cy="97" r="97"></circle>
        <g transform="translate(38.000000, 40.000000)" fill-rule="nonzero">
            <path d="M59.7001945,0.000780959438 C59.4163703,0.000780959438 59.1250892,0.00827141833 58.841265,0.01575996 C56.2196582,0.0756721281 53.5980514,0.33779026 50.9988155,0.802114355 C28.7483315,4.22468083 9.91276241,22.4375965 5.66228326,44.5983885 L5.66228326,44.6058789 C5.59506144,44.9279092 5.65481289,45.2649128 5.84153761,45.5420042 C6.02079196,45.8190955 6.30461613,46.0063283 6.63323954,46.0737175 C6.95440598,46.1336296 7.29050549,46.0662289 7.56685356,45.8790077 C7.83574465,45.684298 8.02245598,45.3997104 8.07475045,45.0701839 C12.1154781,23.9887695 30.2200719,6.49441641 51.3864256,3.24478042 L51.4013644,3.24478042 L51.4163013,3.23728996 C71.2308381,-0.312577893 92.6075169,8.77164053 103.87903,25.4862727 L103.87903,25.4937631 L103.886499,25.5012517 C107.419387,30.6013589 110.040994,36.3228271 111.601989,42.328998 L108.412695,40.4567475 L108.420164,40.449259 C108.211024,40.3219442 107.964561,40.2545492 107.718079,40.2695225 C107.17284,40.2994786 106.717238,40.6889077 106.590278,41.220621 C106.463306,41.7523343 106.702312,42.3065362 107.180316,42.5761314 L112.834237,45.9013046 C112.849174,45.9013046 112.856645,45.9087932 112.871582,45.9162817 C112.88652,45.9237722 112.908926,45.9312607 112.923865,45.9462378 C112.938803,45.9537263 112.961209,45.9612168 112.976148,45.9687053 L112.983616,45.9687053 C112.991085,45.9687053 112.991085,45.9687053 112.998555,45.9761939 C113.013492,45.9761939 113.028429,45.9836843 113.043368,45.9911729 C113.058306,45.9986614 113.073243,46.00615 113.08818,46.00615 C113.095651,46.0136385 113.103119,46.0136385 113.103119,46.0136385 C113.125526,46.021129 113.140463,46.021129 113.155402,46.021129 C113.170339,46.0286175 113.185278,46.0286175 113.207683,46.036106 C113.23009,46.036106 113.252498,46.036106 113.274905,46.0435965 L113.334656,46.0435965 C113.357064,46.051085 113.372001,46.051085 113.394408,46.051085 L113.454159,46.051085 L113.528848,46.051085 L113.566192,46.051085 C113.596069,46.0435965 113.625943,46.0435965 113.64835,46.036106 L113.685695,46.036106 C113.715572,46.0286175 113.745446,46.021129 113.775324,46.0136385 C113.782792,46.00615 113.790261,46.00615 113.797729,45.9986614 C113.827605,45.9911729 113.857481,45.9836843 113.887356,45.9761939 C113.894827,45.9687053 113.909764,45.9687053 113.917232,45.9687053 C113.947108,45.9537263 113.976983,45.9387492 113.999391,45.9312607 C114.006859,45.9237722 114.01433,45.9237722 114.021798,45.9162817 C114.051674,45.9013046 114.081549,45.8863256 114.111425,45.8713485 C114.118894,45.86386 114.118894,45.86386 114.126362,45.86386 C114.156238,45.8413925 114.178645,45.8189249 114.208521,45.8039478 C114.215989,45.7964574 114.223458,45.7964574 114.223458,45.7889688 C114.253335,45.7739898 114.275741,45.7515242 114.305616,45.7215681 C114.305616,45.7215681 114.313087,45.7140777 114.313087,45.7065891 C114.342961,45.6841235 114.365368,45.6541655 114.387775,45.6242113 C114.43259,45.5792762 114.462464,45.5343412 114.492341,45.4819194 C114.49981,45.4669404 114.507278,45.4519634 114.514747,45.4369844 L117.831,39.5955001 C118.055073,39.2135576 118.055073,38.7417564 117.83847,38.359814 C117.621874,37.9778715 117.218546,37.7382228 116.777877,37.7382228 C116.322275,37.7382228 115.911491,37.9778715 115.694875,38.3747872 L113.924741,41.49022 C112.281585,35.2817856 109.56298,29.3655309 105.910589,24.0932601 C95.7081009,8.96548563 77.7824747,-0.149599541 59.7002519,0.00185841987 L59.7001945,0.000780959438 Z" fill="#FFFFFF"></path>
            <path d="M76.1617668,14.7466513 C75.5866615,14.7766074 75.1011738,15.2034792 75.0115562,15.7801314 C74.1750359,20.8426617 72.1658575,22.2207374 70.1193943,23.9730485 C69.0961435,24.8492616 68.0130839,25.8153525 67.3335426,27.2982218 C66.728552,28.6237857 66.4895462,30.2713991 66.7210951,32.4431912 C63.8828534,34.2405562 61.4405965,36.6893822 59.670424,39.6476054 C59.3716667,38.1572974 58.8488367,36.6893822 58.0944771,35.2965441 C56.2571152,31.9190316 53.351646,29.5599301 50.0579548,28.4441259 C49.4455072,25.7780823 48.1309945,23.8608929 46.3757359,22.7600428 C45.4197127,22.1609211 44.3665575,21.8089443 43.2686605,21.6666505 C42.1707252,21.5243586 41.0353903,21.5842708 39.9151223,21.8014519 C35.4336679,22.6851612 30.9747757,26.0102578 29.0105304,30.3239339 L29.0105304,30.3314224 C28.8013908,30.7882503 28.8835591,31.3199636 29.2271271,31.6869328 C29.5632266,32.053902 30.0935135,32.1737264 30.556592,32.0014669 C35.344165,30.1966057 37.5474161,31.2525744 40.0795392,32.1512473 C41.3492527,32.6005982 42.7235169,33.0574261 44.3443587,32.9076361 C45.8232118,32.7728327 47.4141492,32.1138046 49.2290636,30.7657521 C51.9552594,31.6794079 54.3751453,33.619105 55.928683,36.472458 C57.4523545,39.280757 57.8481864,42.4561978 57.2656241,45.421898 C57.0938382,46.1108975 56.9519337,46.8073741 56.8473639,47.4962969 C55.9660253,46.5377022 54.8980326,45.6914357 53.6580705,45.002417 C51.0963108,43.5869944 48.272983,43.1226703 45.7186802,43.5270822 C45.3900377,43.5720154 45.0987566,43.7442614 44.9045691,44.0138758 C44.7103817,44.2759939 44.6282211,44.6129975 44.6804964,44.9350278 C44.725309,45.2645543 44.9045691,45.5566189 45.1734411,45.7438516 C45.4423131,45.9385614 45.7784317,46.0134468 46.0995981,45.9610308 C48.0789486,45.6464967 50.3793316,46.0134525 52.4705367,47.1667704 C54.5393709,48.3051016 55.9659488,49.9827382 56.6456813,51.697664 C56.8174672,54.903013 57.7361404,57.9808688 59.2747451,60.6994433 C58.4382248,62.4518694 57.7212074,64.2792193 57.1311498,66.1739776 C56.0705568,62.8188962 54.1734053,59.6586012 51.4546665,57.0149888 C47.1301911,52.8061829 41.4837269,50.6418679 35.8072435,50.5220435 C33.9176063,48.4326905 31.7739729,47.3916567 29.6678538,47.3092176 C27.4122126,47.2268379 25.3210075,48.2153963 23.5955768,49.7206584 C20.1598206,52.7312208 17.9565695,57.8537591 18.4047532,62.5717705 L18.3972848,62.5642819 C18.4495678,63.0660487 18.7931357,63.4854339 19.2636712,63.6277277 C19.7416828,63.7700196 20.2570367,63.6202392 20.570727,63.230812 C23.8196763,59.2616548 26.2472104,59.0743454 28.8911882,58.587571 C30.2131962,58.3404262 31.6322979,58.0483615 32.9617437,57.1047401 C34.1418397,56.2659697 35.1649948,54.9628561 36.0464482,52.9933275 C41.0357421,53.1655735 45.942818,55.0903492 49.7294347,58.7748038 C53.6804874,62.6166595 55.6523808,67.6268505 55.6747518,72.6594727 C55.4805643,74.0973647 55.3610614,75.5277797 55.3237192,76.9581947 C54.5320172,76.1868327 53.6133363,75.4978332 52.5751524,74.921181 C50.0133927,73.5057584 47.190065,73.0414343 44.6357622,73.4458462 L44.6432325,73.4383577 C44.31459,73.4907813 44.0233089,73.6630331 43.8291214,73.9326283 C43.634934,74.1947464 43.5527734,74.53175 43.6050487,74.8537803 C43.6573298,75.1833068 43.8365784,75.4678752 44.1054695,75.6626041 C44.3743415,75.8573139 44.702984,75.9321993 45.0241504,75.8723063 C47.0035009,75.5577722 49.3038839,75.9247299 51.395089,77.0780459 C53.3518773,78.1564649 54.7337133,79.7067042 55.4507307,81.3319056 C55.9511514,87.2332063 57.7885898,92.8799041 60.7312292,97.8900951 L60.7386977,97.8900951 C61.0822733,98.4742436 61.8366329,98.6689533 62.4266713,98.3244536 C63.0092528,97.9799538 63.2034402,97.2235651 62.8598646,96.6319396 C60.1634967,92.0487067 58.4606282,86.9037373 57.9453317,81.5191192 L57.9378613,81.5191192 C57.9453317,81.5116306 57.9453317,81.4966516 57.9453317,81.4891631 C59.2523875,76.5987964 62.456614,72.2327811 67.2963858,69.5291606 C71.9719129,66.9154563 77.2973446,66.3539116 82.2193344,67.5444862 C83.1156062,69.6338392 84.1686657,70.9969608 85.3860657,71.8581623 C86.7155306,72.8017837 88.1346324,73.0938483 89.4566212,73.3409932 C92.100599,73.8277868 94.5353989,74.0150003 97.7770824,77.9842342 L97.7845508,77.9842342 C98.1057173,78.3661766 98.6210711,78.5234437 99.0990827,78.3811499 C99.5696182,78.2313695 99.9131938,77.8194709 99.9580122,77.3177041 C100.406158,72.5996928 98.202811,67.4771545 94.7671886,64.466592 C93.0493297,62.9612916 90.9505528,61.9801891 88.6949117,62.0551512 C86.6335344,62.1300405 84.5495951,63.126074 82.6899387,65.1182447 C81.5098428,64.8411533 80.3073377,64.6464435 79.0973947,64.5490695 C74.6981584,64.2045697 70.1719621,65.088279 66.0939496,67.3650372 C62.5461475,69.3420429 59.7677528,72.1430566 57.8557064,75.3783137 C57.9079894,74.6368982 57.9901463,73.8954827 58.0872361,73.1465135 L58.0947046,73.1540021 C58.1320488,73.0491567 58.1469876,72.9368229 58.1469876,72.8169985 L58.1469876,72.7870424 C58.3859934,71.1169979 58.737026,69.4394381 59.2150376,67.7693744 C60.3876574,63.6504847 62.2100671,59.8609682 64.5404692,56.4759787 L64.5404692,56.4834672 C64.674909,56.4385321 64.8018842,56.3636429 64.906454,56.273765 C66.4599917,55.0081133 68.6408719,54.1692662 71.0234729,54.124404 C73.4060739,54.0719823 75.5049272,54.8208806 76.946419,55.9966545 C77.2003579,56.2063566 77.5290004,56.3037115 77.8576239,56.2662496 C78.1787903,56.2362936 78.4775475,56.0715399 78.6866681,55.8168988 C78.8958077,55.5622769 78.9854253,55.2327504 78.95554,54.9107201 C78.9181958,54.5811936 78.7538765,54.2816327 78.4999376,54.0794459 C76.5580633,52.4992601 73.8991716,51.6005201 70.9787119,51.6605281 C69.9928225,51.6829956 69.0293806,51.8103085 68.1180993,52.0349743 C70.784448,49.1666673 73.8766094,46.7103643 77.2525185,44.7331669 C79.3662858,45.5794335 81.0766113,45.7966127 82.547931,45.5494678 C84.1537441,45.2723764 85.3638018,44.4710488 86.4766128,43.7071638 C88.694969,42.1719169 90.5397114,40.584254 95.6335942,41.0859825 L95.6261258,41.0859825 C96.1190704,41.1309176 96.597082,40.8762803 96.8286309,40.4419219 C97.0601606,40.0000673 97.0078852,39.4608578 96.6941911,39.0714383 C93.6842476,35.4168919 88.515795,33.3572553 83.9595796,33.6718661 C81.6815675,33.829137 79.5081444,34.6154875 77.9695206,36.2706163 C76.565352,37.7833937 75.7960975,39.9627396 75.8857725,42.6813141 C69.6417937,46.3659604 64.338733,51.6158001 60.6716192,58.0263062 C59.1404907,54.6263625 58.6475269,50.7244987 59.4765902,46.7852497 C59.5363417,46.545601 59.5960931,46.3059524 59.6409077,46.0663037 C59.6857203,45.8940557 59.7230645,45.7218039 59.7753475,45.5495636 C61.1197456,40.7565902 64.2193257,36.8923033 68.1852924,34.4358085 C70.8516411,35.2895521 73.2267851,35.1173118 75.0866327,34.1287515 C77.0808971,33.0653057 78.402886,31.1630512 79.1422743,28.9987362 C80.6211275,24.670106 79.9713185,19.1282784 77.2302279,15.2712768 L77.2227594,15.2637882 C76.9837536,14.9192885 76.5804266,14.7245787 76.1621664,14.7470482 L76.1617668,14.7466513 Z" fill="#51E87C"></path>
            <path d="M5.7449219,54.5724263 C5.61794864,54.5724263 5.48350692,54.6023823 5.36400402,54.639827 C5.09513205,54.7296971 4.87105934,54.9094413 4.71421417,55.14909 L0.32989177,59.9570175 L0.32989177,59.949529 C0.105819052,60.1891776 -0.0136838482,60.5112079 0.00124923421,60.8407153 C0.0161880528,61.1702226 0.158096313,61.4772797 0.397100201,61.7019551 C0.643582103,61.9191343 0.964748537,62.0389586 1.29337195,62.0239854 C1.61453839,62.0090064 1.92822872,61.8592279 2.14482534,61.6120964 L4.61710133,58.9009989 C4.82624097,62.7877169 5.43868855,66.6521956 6.4544632,70.4116122 L6.4544632,70.4191007 C12.0860135,92.2865628 32.0280838,109.316956 54.4869809,111.308916 C54.8156234,111.346362 55.1517229,111.249004 55.4056618,111.039321 C55.6670768,110.829618 55.823922,110.522581 55.8538072,110.193054 C55.8836925,109.863528 55.779117,109.53402 55.5625261,109.279398 C55.3459295,109.032253 55.0322391,108.874986 54.7035966,108.852517 C33.3498624,106.957797 14.1911574,90.5943556 8.83742751,69.7974521 L8.83742751,69.782475 C7.86647123,66.1802679 7.27641371,62.4731905 7.07475018,58.743682 L9.70381398,61.2151308 L9.69634553,61.2226194 C9.93535133,61.4622681 10.2565178,61.5895886 10.5851412,61.5895886 C10.9212407,61.5821001 11.234931,61.4398101 11.4664798,61.2001691 C11.6905526,60.9530242 11.8100555,60.6309939 11.7951224,60.2939904 C11.7801855,59.9644639 11.6308049,59.6499298 11.3843383,59.4327506 L6.74609617,55.0592581 L6.73862772,55.0592581 C6.65646899,54.9469243 6.55937337,54.8570522 6.43987047,54.7821668 L6.43987047,54.7746782 C6.40999474,54.7596992 6.38758747,54.7447221 6.35771174,54.7297451 C6.34277484,54.7222546 6.32036757,54.7072775 6.30542875,54.6997871 C6.29049184,54.6922985 6.28302339,54.6922985 6.26808457,54.68481 C6.11123749,54.6099207 5.93198505,54.5724263 5.7527307,54.5724263 L5.7449219,54.5724263 Z" fill="#FFFFFF"></path>
            <path d="M114.515506,54.5724263 L114.522974,54.5724263 C113.843299,54.5948938 113.305536,55.1640517 113.327945,55.838078 C113.619226,76.7469453 100.145341,97.0135542 80.8671333,104.935381 L80.8596648,104.935381 L80.8521964,104.942869 C76.8263827,106.650356 72.5841253,107.848561 68.25965,108.515168 L70.4107022,105.324773 L70.4032337,105.324773 C70.6646487,104.942831 70.6945149,104.44856 70.4704536,104.036671 C70.253857,103.632259 69.8281208,103.377638 69.3650614,103.392611 C68.9617343,103.400099 68.5882925,103.60979 68.3642198,103.946794 L64.8464368,109.174202 C64.5775648,109.421347 64.4281767,109.773324 64.4431097,110.132797 C64.4580486,110.49227 64.6298325,110.83677 64.9136452,111.053949 C65.0182112,111.143817 65.137718,111.218706 65.2721539,111.263651 L70.6497845,114.798565 C71.2174328,115.173011 71.9717925,115.008267 72.3452342,114.446588 C72.718676,113.877413 72.5618309,113.113547 71.9942016,112.739101 L69.148503,110.86685 C73.4878923,110.1554 77.7377978,108.934707 81.7859825,107.219781 L81.7934509,107.212292 C102.057319,98.8844051 116.076443,77.7872698 115.770515,55.800942 L115.777984,55.8084325 C115.777984,55.4714289 115.643544,55.1568949 115.404542,54.9247232 C115.173012,54.6925708 114.84437,54.5652502 114.515747,54.5724263 L114.515506,54.5724263 Z" fill="#FFFFFF"></path>
        </g>
    </g>
</svg>
